<?xml version="1.0" encoding="utf-8"?>
<!-- Generator: Adobe Illustrator 26.0.1, SVG Export Plug-In . SVG Version: 6.00 Build 0)  -->
<svg version="1.1" id="Layer_1" xmlns="http://www.w3.org/2000/svg" xmlns:xlink="http://www.w3.org/1999/xlink" x="0px" y="0px"
	 viewBox="0 0 320 320" style="enable-background:new 0 0 320 320;" xml:space="preserve">
<style type="text/css">
	.st0{display:none;}
	.st1{display:inline;fill:none;stroke:#000000;stroke-miterlimit:10;}
	.st2{fill:none;}
</style>
<g class="st0">
	<rect class="st1" width="320" height="320"/>
	<line class="st1" x1="0" y1="280" x2="320" y2="280"/>
	<line class="st1" x1="0" y1="240" x2="320" y2="240"/>
	<line class="st1" x1="0" y1="200" x2="320" y2="200"/>
	<line class="st1" x1="0" y1="160" x2="320" y2="160"/>
	<line class="st1" x1="0" y1="120" x2="320" y2="120"/>
	<line class="st1" x1="0" y1="80" x2="320" y2="80"/>
	<line class="st1" x1="0" y1="40" x2="320" y2="40"/>
	<line class="st1" x1="280" y1="0" x2="280" y2="320"/>
	<line class="st1" x1="240" y1="0" x2="240" y2="320"/>
	<line class="st1" x1="200" y1="0" x2="200" y2="320"/>
	<line class="st1" x1="160" y1="0" x2="160" y2="320"/>
	<line class="st1" x1="120" y1="0" x2="120" y2="320"/>
	<line class="st1" x1="80" y1="0" x2="80" y2="320"/>
	<line class="st1" x1="40" y1="0" x2="40" y2="320"/>
</g>
<path class="st2" d="M31.5-25.5h229.9v229.9H31.5V-25.5z"/>
<path d="M160,100c16.5,0,30-13.5,30-30s-13.5-30-30-30s-30,13.5-30,30S143.5,100,160,100z M160,130c-16.5,0-30,13.5-30,30
	s13.5,30,30,30s30-13.5,30-30S176.5,130,160,130z M160,220c-16.5,0-30,13.5-30,30s13.5,30,30,30s30-13.5,30-30S176.5,220,160,220z"
	/>
</svg>
