<svg xmlns="http://www.w3.org/2000/svg" width="32" height="32" viewBox="0 0 32 32">
  <rect x="2" y="2" width="28" height="28" rx="6" fill="#20252b" stroke="#aeb7c2" stroke-width="1.5"/>
  <circle cx="15" cy="16" r="7.5" fill="none" stroke="#58d4e8" stroke-width="1.7"/>
  <path d="M7.5 16h15M15 8.5c2.5 2.2 3.5 4.7 3.5 7.5S17.5 21.3 15 23.5M15 8.5c-2.5 2.2-3.5 4.7-3.5 7.5s1 5.3 3.5 7.5" fill="none" stroke="#58d4e8" stroke-width="1.2" stroke-linecap="round"/>
  <path d="M21.5 8.5l3.9.5-1.9 3.4" fill="none" stroke="#ffb454" stroke-width="2" stroke-linecap="round" stroke-linejoin="round"/>
  <path d="M22.8 10.4c2.1 2 3.1 4.5 2.7 7.2-.4 2.5-1.8 4.7-3.9 6.1" fill="none" stroke="#ffb454" stroke-width="1.8" stroke-linecap="round"/>
  <circle cx="6.5" cy="24.5" r="1.5" fill="#ffb454"/>
  <circle cx="10.5" cy="26" r="1.2" fill="#ffb454" opacity=".75"/>
</svg>
