<svg xmlns="http://www.w3.org/2000/svg" width="32" height="32" viewBox="0 0 32 32">
  <rect x="2" y="2" width="28" height="28" rx="6" fill="#20252b" stroke="#aeb7c2" stroke-width="1.5"/>
  <circle cx="16" cy="15" r="8" fill="none" stroke="#74dca5" stroke-width="1.6"/>
  <path d="M8 15h16M16 7c2.3 2.2 3.3 4.8 3.3 8S18.3 20.8 16 23M16 7c-2.3 2.2-3.3 4.8-3.3 8s1 5.8 3.3 8" fill="none" stroke="#74dca5" stroke-width="1.15" stroke-linecap="round"/>
  <path d="M16 10.5a2.2 2.2 0 1 1 0 4.4 2.2 2.2 0 0 1 0-4.4zm-4.1 9.4c.6-2.8 2-4.2 4.1-4.2s3.5 1.4 4.1 4.2" fill="#ffd166"/>
  <path d="M23 22.5h4M25 20.5v4" stroke="#ffd166" stroke-width="1.8" stroke-linecap="round"/>
</svg>
